<svg xmlns="http://www.w3.org/2000/svg" xmlns:xlink="http://www.w3.org/1999/xlink" preserveAspectRatio="xMidYMid" width="198" height="202" viewBox="0 0 198 202">
  <defs>
    <style>
      .cls-1 {
        fill: #e85a71;
        fill-rule: evenodd;
      }
    </style>
  </defs>
  <path d="M168.167,164.125 L180.743,164.125 C181.177,164.125 181.608,164.110 182.035,164.081 C194.871,163.210 201.653,148.268 194.516,137.522 L187.031,126.250 L195.621,92.831 C202.043,67.849 195.305,41.065 177.175,22.778 C163.226,8.708 143.917,-0.000 122.581,-0.000 L75.423,-0.000 C53.251,-0.000 33.268,9.404 19.214,24.456 C2.209,42.670 -3.841,68.619 2.372,92.790 L10.973,126.250 L3.487,137.522 C-3.649,148.268 3.133,163.210 15.969,164.081 C16.396,164.110 16.827,164.125 17.261,164.125 L29.836,164.125 C40.254,164.125 48.700,172.603 48.700,183.062 C48.700,193.521 57.145,202.000 67.563,202.000 L130.441,202.000 C140.859,202.000 149.304,193.521 149.304,183.062 C149.304,172.603 157.749,164.125 168.167,164.125 ZM108.432,167.296 L89.572,167.296 C87.863,167.296 87.297,163.694 88.807,162.439 L98.238,154.603 C98.716,154.206 99.288,154.206 99.766,154.603 L109.196,162.439 C110.707,163.694 110.140,167.296 108.432,167.296 ZM124.153,109.416 C132.642,109.416 139.523,117.895 139.523,128.354 C139.523,138.813 132.642,147.292 124.153,147.292 C115.664,147.292 108.783,138.813 108.783,128.354 C108.783,117.895 115.664,109.416 124.153,109.416 ZM74.549,96.792 C84.967,96.792 93.413,108.096 93.413,122.041 C93.413,135.987 84.967,147.292 74.549,147.292 C64.131,147.292 55.686,135.987 55.686,122.041 C55.686,108.096 64.131,96.792 74.549,96.792 Z" class="cls-1"/>
</svg>
